<svg height="542" width="720" xmlns="http://www.w3.org/2000/svg">
<rect height="542" fill="#555" width="720"></rect>
<text fill="#7f7" font-family="Courier New" font-size="12" xml:space="preserve">
<tspan x="10" y="26">17 megabytes installed</tspan>
<tspan x="10" y="42"></tspan>
<tspan x="10" y="58">node_modules</tspan>
<tspan x="10" y="74">└─┬ swagger-client@3.0.7 </tspan>
<tspan x="10" y="90">  ├─┬ babel-runtime@6.23.0 </tspan>
<tspan x="10" y="106">  │ ├── core-js@2.4.1 </tspan>
<tspan x="10" y="122">  │ └── regenerator-runtime@0.10.3 </tspan>
<tspan x="10" y="138">  ├── btoa@1.1.2 </tspan>
<tspan x="10" y="154">  ├── deep-extend@0.4.1 </tspan>
<tspan x="10" y="170">  ├── fast-json-patch@1.1.9 </tspan>
<tspan x="10" y="186">  ├─┬ isomorphic-fetch@2.2.1 </tspan>
<tspan x="10" y="202">  │ ├─┬ node-fetch@1.6.3 </tspan>
<tspan x="10" y="218">  │ │ ├─┬ encoding@0.1.12 </tspan>
<tspan x="10" y="234">  │ │ │ └── iconv-lite@0.4.16 </tspan>
<tspan x="10" y="250">  │ │ └── is-stream@1.1.0 </tspan>
<tspan x="10" y="266">  │ └── whatwg-fetch@2.0.3 </tspan>
<tspan x="10" y="282">  ├─┬ isomorphic-form-data@0.0.1 </tspan>
<tspan x="10" y="298">  │ └─┬ form-data@1.0.1 </tspan>
<tspan x="10" y="314">  │   ├── async@2.3.0 </tspan>
<tspan x="10" y="330">  │   ├─┬ combined-stream@1.0.5 </tspan>
<tspan x="10" y="346">  │   │ └── delayed-stream@1.0.0 </tspan>
<tspan x="10" y="362">  │   └─┬ mime-types@2.1.15 </tspan>
<tspan x="10" y="378">  │     └── mime-db@1.27.0 </tspan>
<tspan x="10" y="394">  ├─┬ js-yaml@3.8.3 </tspan>
<tspan x="10" y="410">  │ ├─┬ argparse@1.0.9 </tspan>
<tspan x="10" y="426">  │ │ └── sprintf-js@1.0.3 </tspan>
<tspan x="10" y="442">  │ └── esprima@3.1.3 </tspan>
<tspan x="10" y="458">  ├── lodash@4.16.2 </tspan>
<tspan x="10" y="474">  ├── qs@6.4.0 </tspan>
<tspan x="10" y="490">  └─┬ url@0.11.0 </tspan>
<tspan x="10" y="506">    ├── punycode@1.3.2 </tspan>
<tspan x="10" y="522">    └── querystring@0.2.0</tspan>
</text>
</svg>
